<svg xmlns="http://www.w3.org/2000/svg" viewBox="26.4 26.4 97.1 97.1" enable-background="new 26.4 26.4 97.1 97.1"><style type="text/css">.st0{fill:#467187;} .st1{fill:#FFFFFF;}</style><path class="st0" d="M115.8 123.5h-81.6c-4.3 0-7.8-3.5-7.8-7.8v-81.5c0-4.3 3.5-7.8 7.8-7.8h81.5c4.3 0 7.8 3.5 7.8 7.8v81.5c0 4.4-3.4 7.8-7.7 7.8z" id="Layer_2"/><g id="Layer_1_1_"><path class="st1" d="M47.3 75.3h6.9v6.9h-6.9zM47.3 86.2h6.9v6.9h-6.9zM58.8 64.4h6.9v6.9h-6.9zM58.8 75.3h6.9v6.9h-6.9zM58.8 86.2h6.9v6.9h-6.9zM100.2 65.4v-20.1c0-2.7-2.2-4.8-4.8-4.8h-54.5c-2.7 0-4.8 2.2-4.8 4.8v54.4c0 2.7 2.2 4.8 4.8 4.8h35.5c4 3.2 9 5.1 14.4 5.1 12.8 0 23.1-10.3 23.1-23.1 0-9.5-5.6-17.6-13.7-21.1zm-43.1-20.2h22.1v5.7h-22.1v-5.7zm-15.1 11.1h52.2v7.3c-1.1-.2-2.2-.3-3.4-.3-5.1 0-9.8 1.7-13.6 4.4v-3.5h-6.9v6.9h3.1c-3.6 4.1-5.8 9.4-5.8 15.2 0 4.2 1.1 8.1 3 11.4h-28.6v-41.4zm46.7 11.4c0-1.2 1-2.1 2.1-2.1 1.2 0 2.1.9 2.1 2.1s-.9 2.1-2.1 2.1c-1.1 0-2.1-1-2.1-2.1zm-14.6 18.8c0 1.2-.9 2.1-2.1 2.1s-2.1-1-2.1-2.1c0-1.2.9-2.1 2.1-2.1s2.1.9 2.1 2.1zm16.7 20.9c-1.2 0-2.1-.9-2.1-2.1s1-2.1 2.1-2.1c1.2 0 2.1.9 2.1 2.1.1 1.2-.9 2.1-2.1 2.1zm12.9-30.5l-8.9 8.9c.1.3.2.5.2.8 0 2.3-1.9 4.2-4.2 4.2-2.2 0-4-1.8-4.1-3.9l-9.4-7.3c-.8-.6-1-1.8-.4-2.5.6-.8 1.7-.9 2.5-.2l8.6 6.7c.7-.7 1.7-1.1 2.8-1.1.7 0 1.4.2 2 .6l8.4-8.4c.8-.8 2-.9 2.6-.2.7.5.6 1.6-.1 2.4zm6 11.7c-1.2 0-2.1-1-2.1-2.1 0-1.2.9-2.1 2.1-2.1s2.1.9 2.1 2.1c0 1.2-1 2.1-2.1 2.1z"/></g></svg>